<?xml version="1.0" encoding="UTF-8" standalone="no"?>
<svg
   xmlns:dc="http://purl.org/dc/elements/1.1/"
   xmlns:cc="http://creativecommons.org/ns#"
   xmlns:rdf="http://www.w3.org/1999/02/22-rdf-syntax-ns#"
   xmlns:svg="http://www.w3.org/2000/svg"
   xmlns="http://www.w3.org/2000/svg"
   xmlns:sodipodi="http://sodipodi.sourceforge.net/DTD/sodipodi-0.dtd"
   xmlns:inkscape="http://www.inkscape.org/namespaces/inkscape"
   data-name="Layer 1"
   viewBox="0 0 1200 120"
   preserveAspectRatio="none"
   version="1.1"
   id="svg30"
   sodipodi:docname="bottom.svg"
   inkscape:version="1.0.2-2 (e86c870879, 2021-01-15)">
  <metadata
     id="metadata36">
    <rdf:RDF>
      <cc:Work
         rdf:about="">
        <dc:format>image/svg+xml</dc:format>
        <dc:type
           rdf:resource="http://purl.org/dc/dcmitype/StillImage" />
      </cc:Work>
    </rdf:RDF>
  </metadata>
  <defs
     id="defs34" />
  <sodipodi:namedview
     pagecolor="#ffffff"
     bordercolor="#666666"
     borderopacity="1"
     objecttolerance="10"
     gridtolerance="10"
     guidetolerance="10"
     inkscape:pageopacity="0"
     inkscape:pageshadow="2"
     inkscape:window-width="1429"
     inkscape:window-height="778"
     id="namedview32"
     showgrid="false"
     inkscape:zoom="0.89"
     inkscape:cx="441.01124"
     inkscape:cy="60"
     inkscape:window-x="656"
     inkscape:window-y="313"
     inkscape:window-maximized="0"
     inkscape:current-layer="svg30" />
  <path
     d="M 0,121.98921 V 75.699212 c 47.79,-22.2 103.59,-32.17 158,-28 70.36,5.37 136.33,33.31 206.8,37.5 73.84,4.36 147.54,-16.88 218.2,-35.26 69.27,-18 138.3,-24.88 209.4,-13.08 36.15,6 69.85,17.84 104.45,29.34 92.64,30.789998 216.15,70.079998 303.15,3.32 v 52.469998 z"
     opacity="0.25"
     class="shape-fill"
     fill="#d32e6b"
     fill-opacity="1"
     id="path24" />
  <path
     d="m 0,121.98921 v -15.81 C 13,85.069212 27.64,65.129212 47.69,49.939212 c 51.72,-39.22 117.31,-38.95 176.89,-19.53 31.15,10.15 60.09,26.07 89.67,39.8 40.92,19 84.73,45.999998 130.83,49.669998 36.26,2.85 70.9,-9.42 98.6,-31.559998 31.77,-25.39 62.32,-62 103.63,-73 40.44,-10.7899997 81.35,6.69 119.13,24.28 37.78,17.59 75.16,39 116.92,43.05 59.73,5.85 113.28,-22.88 168.9,-38.84 30.2,-8.66 59,-6.17 87.09,7.5 22.43,10.89 48,26.93 60.65,49.239998 v 21.44 z"
     opacity="0.5"
     class="shape-fill"
     fill="#d32e6b"
     fill-opacity="1"
     id="path26" />
  <path
     d="m 0,121.98921 v -5.63 C 149.93,62.989212 314.09,50.669212 475.83,79.419212 c 43,7.64 84.23,20.119998 127.61,26.459998 59,8.63 112.48,-12.239998 165.56,-35.399998 58.93,-25.71 117,-43.73 182.2,-38.49 86.53,7 172.46,45.71 248.8,84.809998 v 5.19 z"
     class="shape-fill"
     fill="#d32e6b"
     fill-opacity="1"
     id="path28" />
</svg>
